<svg width="1024" height="1024" viewBox="0 0 1024 1024" fill="none" xmlns="http://www.w3.org/2000/svg">
<path d="M104.703 338.752C116.705 326.754 132.981 320.014 149.951 320.014C166.922 320.014 183.197 326.754 195.199 338.752L511.999 655.552L828.799 338.752C840.87 327.094 857.036 320.643 873.817 320.789C890.597 320.935 906.65 327.665 918.516 339.532C930.382 351.398 937.112 367.45 937.258 384.23C937.404 401.011 930.953 417.177 919.295 429.248L557.247 791.296C545.245 803.294 528.97 810.034 511.999 810.034C495.029 810.034 478.753 803.294 466.751 791.296L104.703 429.248C92.705 417.246 85.9648 400.971 85.9648 384C85.9648 367.029 92.705 350.754 104.703 338.752Z" fill="rgba(255, 255, 255, 0.87)"/>
</svg>